<mxfile host="app.diagrams.net" modified="2024-01-12T14:08:27.585Z" agent="Mozilla/5.0 (Windows NT 10.0; Win64; x64) AppleWebKit/537.36 (KHTML, like Gecko) Chrome/118.0.0.0 YaBrowser/23.11.0.0 Safari/537.36" etag="AhSbUOe1VaerlpY_j7Gt" version="22.1.18" type="device">
  <diagram name="Страница — 1" id="7hsSuXmm-aj4jIF3yB9Z">
    <mxGraphModel dx="980" dy="531" grid="1" gridSize="10" guides="1" tooltips="1" connect="1" arrows="1" fold="1" page="1" pageScale="1" pageWidth="827" pageHeight="1169" math="0" shadow="0">
      <root>
        <mxCell id="0" />
        <mxCell id="1" parent="0" />
        <mxCell id="jdWEgTwkDNwhv6jQdBwh-15" style="edgeStyle=orthogonalEdgeStyle;rounded=0;orthogonalLoop=1;jettySize=auto;html=1;exitX=1;exitY=0.5;exitDx=0;exitDy=0;exitPerimeter=0;entryX=0;entryY=0.5;entryDx=0;entryDy=0;startArrow=classic;startFill=1;" edge="1" parent="1" source="jdWEgTwkDNwhv6jQdBwh-1" target="jdWEgTwkDNwhv6jQdBwh-9">
          <mxGeometry relative="1" as="geometry" />
        </mxCell>
        <mxCell id="jdWEgTwkDNwhv6jQdBwh-16" style="edgeStyle=orthogonalEdgeStyle;rounded=0;orthogonalLoop=1;jettySize=auto;html=1;exitX=1.009;exitY=0.627;exitDx=0;exitDy=0;exitPerimeter=0;startArrow=classic;startFill=1;" edge="1" parent="1" source="jdWEgTwkDNwhv6jQdBwh-1" target="jdWEgTwkDNwhv6jQdBwh-11">
          <mxGeometry relative="1" as="geometry">
            <Array as="points">
              <mxPoint x="210" y="178" />
              <mxPoint x="210" y="280" />
            </Array>
          </mxGeometry>
        </mxCell>
        <mxCell id="jdWEgTwkDNwhv6jQdBwh-1" value="СУБД&lt;br&gt;MySQL" style="shape=cylinder3;whiteSpace=wrap;html=1;boundedLbl=1;backgroundOutline=1;size=15;" vertex="1" parent="1">
          <mxGeometry x="90" y="90" width="90" height="140" as="geometry" />
        </mxCell>
        <mxCell id="jdWEgTwkDNwhv6jQdBwh-2" value="&lt;b&gt;&lt;font style=&quot;font-size: 18px;&quot;&gt;Архитектура веб-приложения &quot;Еще не бабушка&quot;&lt;/font&gt;&lt;/b&gt;" style="text;html=1;align=center;verticalAlign=middle;resizable=0;points=[];autosize=1;strokeColor=none;fillColor=none;" vertex="1" parent="1">
          <mxGeometry x="80" y="10" width="460" height="40" as="geometry" />
        </mxCell>
        <mxCell id="jdWEgTwkDNwhv6jQdBwh-7" value="Компоненты" style="swimlane;startSize=20;horizontal=1;childLayout=treeLayout;horizontalTree=0;resizable=0;containerType=tree;fontSize=12;" vertex="1" parent="1">
          <mxGeometry x="280" y="90" width="280" height="270" as="geometry" />
        </mxCell>
        <mxCell id="jdWEgTwkDNwhv6jQdBwh-8" value="Python" style="whiteSpace=wrap;html=1;" vertex="1" parent="jdWEgTwkDNwhv6jQdBwh-7">
          <mxGeometry x="90" y="40" width="100" height="40" as="geometry" />
        </mxCell>
        <mxCell id="jdWEgTwkDNwhv6jQdBwh-9" value="Django" style="whiteSpace=wrap;html=1;" vertex="1" parent="jdWEgTwkDNwhv6jQdBwh-7">
          <mxGeometry x="20" y="130" width="100" height="40" as="geometry" />
        </mxCell>
        <mxCell id="jdWEgTwkDNwhv6jQdBwh-10" value="" style="edgeStyle=elbowEdgeStyle;elbow=vertical;html=1;rounded=1;curved=0;sourcePerimeterSpacing=0;targetPerimeterSpacing=0;startSize=6;endSize=6;" edge="1" parent="jdWEgTwkDNwhv6jQdBwh-7" source="jdWEgTwkDNwhv6jQdBwh-8" target="jdWEgTwkDNwhv6jQdBwh-9">
          <mxGeometry relative="1" as="geometry" />
        </mxCell>
        <mxCell id="jdWEgTwkDNwhv6jQdBwh-11" value="Beautifulsoup&lt;br&gt;requests&lt;br&gt;pandas&lt;br&gt;os&lt;br&gt;csv&lt;br&gt;openpyxl" style="whiteSpace=wrap;html=1;" vertex="1" parent="jdWEgTwkDNwhv6jQdBwh-7">
          <mxGeometry x="160" y="130" width="100" height="120" as="geometry" />
        </mxCell>
        <mxCell id="jdWEgTwkDNwhv6jQdBwh-12" value="" style="edgeStyle=elbowEdgeStyle;elbow=vertical;html=1;rounded=1;curved=0;sourcePerimeterSpacing=0;targetPerimeterSpacing=0;startSize=6;endSize=6;" edge="1" parent="jdWEgTwkDNwhv6jQdBwh-7" source="jdWEgTwkDNwhv6jQdBwh-8" target="jdWEgTwkDNwhv6jQdBwh-11">
          <mxGeometry relative="1" as="geometry" />
        </mxCell>
        <mxCell id="jdWEgTwkDNwhv6jQdBwh-25" style="edgeStyle=orthogonalEdgeStyle;rounded=0;orthogonalLoop=1;jettySize=auto;html=1;exitX=0.5;exitY=1;exitDx=0;exitDy=0;entryX=0.5;entryY=1;entryDx=0;entryDy=0;startArrow=classic;startFill=1;" edge="1" parent="1" source="jdWEgTwkDNwhv6jQdBwh-20" target="jdWEgTwkDNwhv6jQdBwh-9">
          <mxGeometry relative="1" as="geometry">
            <Array as="points">
              <mxPoint x="673" y="380" />
              <mxPoint x="350" y="380" />
            </Array>
          </mxGeometry>
        </mxCell>
        <mxCell id="jdWEgTwkDNwhv6jQdBwh-20" value="" style="ellipse;whiteSpace=wrap;html=1;" vertex="1" parent="1">
          <mxGeometry x="580" y="90" width="185" height="200" as="geometry" />
        </mxCell>
        <mxCell id="jdWEgTwkDNwhv6jQdBwh-21" value="Django Templates" style="text;html=1;strokeColor=none;fillColor=none;align=center;verticalAlign=middle;whiteSpace=wrap;rounded=0;" vertex="1" parent="1">
          <mxGeometry x="642.5" y="100" width="60" height="30" as="geometry" />
        </mxCell>
        <mxCell id="jdWEgTwkDNwhv6jQdBwh-22" value="Bootstrap" style="ellipse;whiteSpace=wrap;html=1;aspect=fixed;" vertex="1" parent="1">
          <mxGeometry x="675" y="130" width="80" height="80" as="geometry" />
        </mxCell>
        <mxCell id="jdWEgTwkDNwhv6jQdBwh-23" value="" style="ellipse;whiteSpace=wrap;html=1;aspect=fixed;" vertex="1" parent="1">
          <mxGeometry x="585" y="130" width="80" height="80" as="geometry" />
        </mxCell>
        <mxCell id="jdWEgTwkDNwhv6jQdBwh-24" value="CSS" style="text;html=1;strokeColor=none;fillColor=none;align=center;verticalAlign=middle;whiteSpace=wrap;rounded=0;" vertex="1" parent="1">
          <mxGeometry x="595" y="145" width="60" height="30" as="geometry" />
        </mxCell>
        <mxCell id="jdWEgTwkDNwhv6jQdBwh-26" value="" style="ellipse;whiteSpace=wrap;html=1;aspect=fixed;" vertex="1" parent="1">
          <mxGeometry x="632.5" y="200" width="80" height="80" as="geometry" />
        </mxCell>
        <mxCell id="jdWEgTwkDNwhv6jQdBwh-27" value="HTML" style="text;html=1;strokeColor=none;fillColor=none;align=center;verticalAlign=middle;whiteSpace=wrap;rounded=0;" vertex="1" parent="1">
          <mxGeometry x="642.5" y="225" width="60" height="30" as="geometry" />
        </mxCell>
      </root>
    </mxGraphModel>
  </diagram>
</mxfile>
